<svg width="376" height="255" viewBox="0 0 376 255" fill="none" xmlns="http://www.w3.org/2000/svg">
<g filter="url(#filter0_b_185_701)">
<path fill-rule="evenodd" clip-rule="evenodd" d="M127 13.0814C127 5.85674 121.143 0 113.919 0H23.9156C10.7074 0 0 10.7074 0 23.9156V219C0 238.882 16.1177 255 36 255H340C359.882 255 376 238.882 376 219V54C376 39.0883 363.912 27 349 27H140.919C133.232 27 127 20.7684 127 13.0814Z" fill="#0D0D0D" fill-opacity="0.85"/>
<path d="M113.919 0.5C120.867 0.5 126.5 6.13288 126.5 13.0814C126.5 21.0446 132.955 27.5 140.919 27.5H349C363.636 27.5 375.5 39.3645 375.5 54V219C375.5 238.606 359.606 254.5 340 254.5H36C16.3939 254.5 0.5 238.606 0.5 219V23.9156C0.5 10.9835 10.9835 0.5 23.9156 0.5H113.919Z" stroke="#F5F1EE"/>
</g>
<path d="M29.278 76V62.698H31.744V76H29.278ZM36.1593 76V65.056H33.6933V62.698H41.0913V65.056H38.6253V76H36.1593ZM47.9868 69.358C47.9868 65.47 51.0468 62.464 55.0248 62.464C58.8048 62.464 61.8468 65.542 61.8468 69.34C61.8468 73.228 58.8588 76.234 54.9888 76.234C51.0828 76.234 47.9868 73.21 47.9868 69.358ZM50.4708 69.34C50.4708 71.878 52.4508 73.858 54.9708 73.858C57.4908 73.858 59.3628 71.95 59.3628 69.376C59.3628 66.766 57.4548 64.84 54.8628 64.84C52.4328 64.84 50.4708 66.838 50.4708 69.34ZM65.6231 76V65.056H63.1571V62.698H70.5551V65.056H68.0891V76H65.6231ZM71.4696 78.61V73.642H73.2336L77.7876 62.698H79.7676L84.3216 73.642H86.0856V78.61H84.3576L83.8536 76H73.7016L73.1976 78.61H71.4696ZM75.7896 73.642H81.7656L78.7776 66.352L75.7896 73.642ZM88.1528 76V62.698H95.2988V65.056H90.6188V68.188H95.1008V70.546H90.6188V73.642H95.2988V76H88.1528ZM96.9802 76L102.542 62.698H104.486L110.048 76H107.384L103.514 66.082L99.6442 76H96.9802Z" fill="#F5F1EE"/>
<defs>
<filter id="filter0_b_185_701" x="-15" y="-15" width="406" height="285" filterUnits="userSpaceOnUse" color-interpolation-filters="sRGB">
<feFlood flood-opacity="0" result="BackgroundImageFix"/>
<feGaussianBlur in="BackgroundImageFix" stdDeviation="7.5"/>
<feComposite in2="SourceAlpha" operator="in" result="effect1_backgroundBlur_185_701"/>
<feBlend mode="normal" in="SourceGraphic" in2="effect1_backgroundBlur_185_701" result="shape"/>
</filter>
</defs>
</svg>
