<svg width="376" height="255" viewBox="0 0 376 255" fill="none" xmlns="http://www.w3.org/2000/svg">
<g filter="url(#filter0_b_185_689)">
<path fill-rule="evenodd" clip-rule="evenodd" d="M127 13.0814C127 5.85674 121.143 0 113.919 0H23.9156C10.7074 0 0 10.7074 0 23.9156V219C0 238.882 16.1177 255 36 255H340C359.882 255 376 238.882 376 219V54C376 39.0883 363.912 27 349 27H140.919C133.232 27 127 20.7684 127 13.0814Z" fill="#0D0D0D" fill-opacity="0.85"/>
<path d="M113.919 0.5C120.867 0.5 126.5 6.13288 126.5 13.0814C126.5 21.0446 132.955 27.5 140.919 27.5H349C363.636 27.5 375.5 39.3645 375.5 54V219C375.5 238.606 359.606 254.5 340 254.5H36C16.3939 254.5 0.5 238.606 0.5 219V23.9156C0.5 10.9835 10.9835 0.5 23.9156 0.5H113.919Z" stroke="#F5F1EE"/>
</g>
<path d="M28.648 69.358C28.648 65.47 31.708 62.464 35.686 62.464C39.466 62.464 42.508 65.542 42.508 69.34C42.508 73.228 39.52 76.234 35.65 76.234C31.744 76.234 28.648 73.21 28.648 69.358ZM31.132 69.34C31.132 71.878 33.112 73.858 35.632 73.858C38.152 73.858 40.024 71.95 40.024 69.376C40.024 66.766 38.116 64.84 35.524 64.84C33.094 64.84 31.132 66.838 31.132 69.34ZM46.2843 76V65.056H43.8183V62.698H51.2163V65.056H48.7503V76H46.2843ZM52.1308 78.61V73.642H53.8948L58.4488 62.698H60.4288L64.9828 73.642H66.7468V78.61H65.0188L64.5148 76H54.3628L53.8588 78.61H52.1308ZM56.4508 73.642H62.4268L59.4388 66.352L56.4508 73.642ZM68.814 76V62.698H75.96V65.056H71.28V68.188H75.762V70.546H71.28V73.642H75.96V76H68.814ZM77.6415 76L83.2035 62.698H85.1475L90.7095 76H88.0455L84.1755 66.082L80.3055 76H77.6415ZM98.2426 76V62.698H101.627L105.209 72.778L108.755 62.698H112.139V76H109.673V66.028L106.199 76H104.183L100.709 66.028V76H98.2426ZM114.606 69.358C114.606 65.47 117.666 62.464 121.644 62.464C125.424 62.464 128.466 65.542 128.466 69.34C128.466 73.228 125.478 76.234 121.608 76.234C117.702 76.234 114.606 73.21 114.606 69.358ZM117.09 69.34C117.09 71.878 119.07 73.858 121.59 73.858C124.11 73.858 125.982 71.95 125.982 69.376C125.982 66.766 124.074 64.84 121.482 64.84C119.052 64.84 117.09 66.838 117.09 69.34ZM133.394 73.642H134.294C135.608 73.642 137.3 73.588 137.3 71.806C137.3 70.15 135.41 70.042 134.186 70.042H133.394V73.642ZM130.928 76V62.698H138.938V65.056H133.394V67.684H134.222C136.184 67.684 137.066 67.81 137.822 68.224C139.028 68.872 139.784 70.258 139.784 71.86C139.784 73.372 139.136 74.614 138.002 75.316C137.174 75.82 136.22 76 134.258 76H130.928ZM142.243 76V62.698H144.691V71.914L150.469 62.698H152.971V76H150.523V66.784L144.745 76H142.243ZM154.921 76L160.483 62.698H162.427L167.989 76H165.325L161.455 66.082L157.585 76H154.921ZM169.937 76V62.698H172.403V67.9H173.285C175.337 67.9 176.273 68.026 177.083 68.422C178.361 69.052 179.153 70.402 179.153 71.968C179.153 73.444 178.469 74.65 177.263 75.334C176.381 75.838 175.373 76 173.321 76H169.937ZM172.403 73.642H173.393C174.329 73.642 174.797 73.606 175.283 73.516C176.147 73.318 176.669 72.724 176.669 71.914C176.669 70.276 174.419 70.258 173.267 70.258H172.403V73.642ZM181.463 76V62.698H183.929V68.062H188.681V62.698H191.147V76H188.681V70.42H183.929V76H181.463ZM193.607 69.358C193.607 65.47 196.667 62.464 200.645 62.464C204.425 62.464 207.467 65.542 207.467 69.34C207.467 73.228 204.479 76.234 200.609 76.234C196.703 76.234 193.607 73.21 193.607 69.358ZM196.091 69.34C196.091 71.878 198.071 73.858 200.591 73.858C203.111 73.858 204.983 71.95 204.983 69.376C204.983 66.766 203.075 64.84 200.483 64.84C198.053 64.84 196.091 66.838 196.091 69.34ZM212.108 59.134H214.178C214.178 60.088 214.52 60.502 215.294 60.502C216.068 60.502 216.41 60.088 216.41 59.134H218.48C218.21 60.736 217.04 61.672 215.294 61.672C213.548 61.672 212.378 60.736 212.108 59.134ZM209.93 76V62.698H212.378V71.914L218.156 62.698H220.658V76H218.21V66.784L212.432 76H209.93ZM29.278 100V86.698H32.572C34.372 86.698 35.29 86.878 36.082 87.382C37.162 88.066 37.774 89.308 37.774 90.802C37.774 92.386 37.072 93.754 35.92 94.402C35.2 94.798 34.354 94.942 32.536 94.942H31.744V100H29.278ZM31.744 92.584H32.464C33.688 92.584 35.29 92.494 35.29 90.856C35.29 90.01 34.858 89.38 34.138 89.182C33.742 89.092 33.346 89.056 32.572 89.056H31.744V92.584ZM38.9844 100L44.5284 86.698H46.4724L52.0524 100H49.3344L47.9124 96.562H43.1784L41.7024 100H38.9844ZM44.0784 94.204H46.9224L45.5004 90.172L44.0784 94.204ZM53.2626 95.95H55.7466C55.7466 97.012 56.5926 97.858 57.6546 97.858C58.7166 97.858 59.5626 97.012 59.5626 95.95C59.5626 94.618 58.7346 94.06 56.7546 94.06V91.9C58.3746 91.9 59.2386 91.378 59.2386 90.37C59.2386 89.524 58.5366 88.822 57.6546 88.822C56.7726 88.822 56.0706 89.524 56.0706 90.37H53.6766C53.6766 88.21 55.4406 86.464 57.6546 86.464C59.8686 86.464 61.6326 88.21 61.6326 90.37C61.6326 91.576 60.9666 92.584 59.9406 92.908C61.1106 93.322 62.0466 94.672 62.0466 95.95C62.0466 98.308 60.0846 100.234 57.6546 100.234C55.2246 100.234 53.2626 98.308 53.2626 95.95ZM64.5074 100V86.698H67.8014C69.6014 86.698 70.5194 86.878 71.3114 87.382C72.3914 88.066 73.0034 89.308 73.0034 90.802C73.0034 92.386 72.3014 93.754 71.1494 94.402C70.4294 94.798 69.5834 94.942 67.7654 94.942H66.9734V100H64.5074ZM66.9734 92.584H67.6934C68.9174 92.584 70.5194 92.494 70.5194 90.856C70.5194 90.01 70.0874 89.38 69.3674 89.182C68.9714 89.092 68.5754 89.056 67.8014 89.056H66.9734V92.584ZM74.2137 100L79.7577 86.698H81.7017L87.2817 100H84.5637L83.1417 96.562H78.4077L76.9317 100H74.2137ZM79.3077 94.204H82.1517L80.7297 90.172L79.3077 94.204ZM91.696 97.642H92.596C93.91 97.642 95.602 97.588 95.602 95.806C95.602 94.15 93.712 94.042 92.488 94.042H91.696V97.642ZM89.23 100V86.698H97.24V89.056H91.696V91.684H92.524C94.486 91.684 95.368 91.81 96.124 92.224C97.33 92.872 98.086 94.258 98.086 95.86C98.086 97.372 97.438 98.614 96.304 99.316C95.476 99.82 94.522 100 92.56 100H89.23ZM99.9153 93.358C99.9153 89.47 102.975 86.464 106.953 86.464C110.733 86.464 113.775 89.542 113.775 93.34C113.775 97.228 110.787 100.234 106.917 100.234C103.011 100.234 99.9153 97.21 99.9153 93.358ZM102.399 93.34C102.399 95.878 104.379 97.858 106.899 97.858C109.419 97.858 111.291 95.95 111.291 93.376C111.291 90.766 109.383 88.84 106.791 88.84C104.361 88.84 102.399 90.838 102.399 93.34ZM117.552 100V89.056H115.086V86.698H122.484V89.056H120.018V100H117.552ZM124.424 100V86.698H126.89V92.44L131.012 86.698H133.982L128.978 93.232L133.982 100H131.012L126.89 94.15V100H124.424ZM136.021 100V86.698H138.469V95.914L144.247 86.698H146.749V100H144.301V90.784L138.523 100H136.021Z" fill="#F5F1EE"/>
<defs>
<filter id="filter0_b_185_689" x="-15" y="-15" width="406" height="285" filterUnits="userSpaceOnUse" color-interpolation-filters="sRGB">
<feFlood flood-opacity="0" result="BackgroundImageFix"/>
<feGaussianBlur in="BackgroundImageFix" stdDeviation="7.5"/>
<feComposite in2="SourceAlpha" operator="in" result="effect1_backgroundBlur_185_689"/>
<feBlend mode="normal" in="SourceGraphic" in2="effect1_backgroundBlur_185_689" result="shape"/>
</filter>
</defs>
</svg>
