<svg width="376" height="255" viewBox="0 0 376 255" fill="none" xmlns="http://www.w3.org/2000/svg">
<g filter="url(#filter0_b_185_707)">
<path fill-rule="evenodd" clip-rule="evenodd" d="M127 13.0814C127 5.85674 121.143 0 113.919 0H23.9156C10.7074 0 0 10.7074 0 23.9156V219C0 238.882 16.1177 255 36 255H340C359.882 255 376 238.882 376 219V54C376 39.0883 363.912 27 349 27H140.919C133.232 27 127 20.7684 127 13.0814Z" fill="#0D0D0D" fill-opacity="0.85"/>
<path d="M113.919 0.5C120.867 0.5 126.5 6.13288 126.5 13.0814C126.5 21.0446 132.955 27.5 140.919 27.5H349C363.636 27.5 375.5 39.3645 375.5 54V219C375.5 238.606 359.606 254.5 340 254.5H36C16.3939 254.5 0.5 238.606 0.5 219V23.9156C0.5 10.9835 10.9835 0.5 23.9156 0.5H113.919Z" stroke="#F5F1EE"/>
</g>
<path d="M28.648 69.358C28.648 65.47 31.708 62.464 35.686 62.464C39.466 62.464 42.508 65.542 42.508 69.34C42.508 73.228 39.52 76.234 35.65 76.234C31.744 76.234 28.648 73.21 28.648 69.358ZM31.132 69.34C31.132 71.878 33.112 73.858 35.632 73.858C38.152 73.858 40.024 71.95 40.024 69.376C40.024 66.766 38.116 64.84 35.524 64.84C33.094 64.84 31.132 66.838 31.132 69.34ZM46.2843 76V65.056H43.8183V62.698H51.2163V65.056H48.7503V76H46.2843ZM52.1308 78.61V73.642H53.8948L58.4488 62.698H60.4288L64.9828 73.642H66.7468V78.61H65.0188L64.5148 76H54.3628L53.8588 78.61H52.1308ZM56.4508 73.642H62.4268L59.4388 66.352L56.4508 73.642ZM68.814 76V62.698H75.96V65.056H71.28V68.188H75.762V70.546H71.28V73.642H75.96V76H68.814ZM77.6415 76L83.2035 62.698H85.1475L90.7095 76H88.0455L84.1755 66.082L80.3055 76H77.6415ZM98.2426 76V62.698H101.627L105.209 72.778L108.755 62.698H112.139V76H109.673V66.028L106.199 76H104.183L100.709 66.028V76H98.2426ZM115.236 76V62.698H122.382V65.056H117.702V68.188H122.184V70.546H117.702V73.642H122.382V76H115.236ZM124.189 78.61V73.642H125.953L130.507 62.698H132.487L137.041 73.642H138.805V78.61H137.077L136.573 76H126.421L125.917 78.61H124.189ZM128.509 73.642H134.485L131.497 66.352L128.509 73.642ZM140.872 76V62.698H143.32V71.914L149.098 62.698H151.6V76H149.152V66.784L143.374 76H140.872ZM153.549 76L159.093 62.698H161.037L166.617 76H163.899L162.477 72.562H157.743L156.267 76H153.549ZM158.643 70.204H161.487L160.065 66.172L158.643 70.204ZM171.032 73.642H171.932C173.246 73.642 174.938 73.588 174.938 71.806C174.938 70.15 173.048 70.042 171.824 70.042H171.032V73.642ZM168.566 76V62.698H176.576V65.056H171.032V67.684H171.86C173.822 67.684 174.704 67.81 175.46 68.224C176.666 68.872 177.422 70.258 177.422 71.86C177.422 73.372 176.774 74.614 175.64 75.316C174.812 75.82 173.858 76 171.896 76H168.566ZM178.729 76L184.273 62.698H186.217L191.797 76H189.079L187.657 72.562H182.923L181.447 76H178.729ZM183.823 70.204H186.667L185.245 66.172L183.823 70.204ZM193.745 76V62.698H196.193V71.914L201.971 62.698H204.473V76H202.025V66.784L196.247 76H193.745ZM207.574 76V62.698H210.04V68.062H214.792V62.698H217.258V76H214.792V70.42H210.04V76H207.574ZM220.349 76V62.698H227.351V65.056H222.815V76H220.349ZM228.139 76L233.683 62.698H235.627L241.207 76H238.489L237.067 72.562H232.333L230.857 76H228.139ZM233.233 70.204H236.077L234.655 66.172L233.233 70.204Z" fill="#F5F1EE"/>
<defs>
<filter id="filter0_b_185_707" x="-15" y="-15" width="406" height="285" filterUnits="userSpaceOnUse" color-interpolation-filters="sRGB">
<feFlood flood-opacity="0" result="BackgroundImageFix"/>
<feGaussianBlur in="BackgroundImageFix" stdDeviation="7.5"/>
<feComposite in2="SourceAlpha" operator="in" result="effect1_backgroundBlur_185_707"/>
<feBlend mode="normal" in="SourceGraphic" in2="effect1_backgroundBlur_185_707" result="shape"/>
</filter>
</defs>
</svg>
