<svg width="376" height="255" viewBox="0 0 376 255" fill="none" xmlns="http://www.w3.org/2000/svg">
<g filter="url(#filter0_b_185_686)">
<path fill-rule="evenodd" clip-rule="evenodd" d="M127 13.0814C127 5.85674 121.143 0 113.919 0H23.9156C10.7074 0 0 10.7074 0 23.9156V219C0 238.882 16.1177 255 36 255H340C359.882 255 376 238.882 376 219V54C376 39.0883 363.912 27 349 27H140.919C133.232 27 127 20.7684 127 13.0814Z" fill="#0D0D0D" fill-opacity="0.85"/>
<path d="M113.919 0.5C120.867 0.5 126.5 6.13288 126.5 13.0814C126.5 21.0446 132.955 27.5 140.919 27.5H349C363.636 27.5 375.5 39.3645 375.5 54V219C375.5 238.606 359.606 254.5 340 254.5H36C16.3939 254.5 0.5 238.606 0.5 219V23.9156C0.5 10.9835 10.9835 0.5 23.9156 0.5H113.919Z" stroke="#F5F1EE"/>
</g>
<path d="M29.278 76V62.698H31.744V68.44L35.866 62.698H38.836L33.832 69.232L38.836 76H35.866L31.744 70.15V76H29.278ZM40.8746 76V62.698H44.1686C45.9686 62.698 46.8866 62.878 47.6786 63.382C48.7586 64.066 49.3706 65.308 49.3706 66.802C49.3706 68.386 48.6686 69.754 47.5166 70.402C46.7966 70.798 45.9506 70.942 44.1326 70.942H43.3406V76H40.8746ZM43.3406 68.584H44.0606C45.2846 68.584 46.8866 68.494 46.8866 66.856C46.8866 66.01 46.4546 65.38 45.7346 65.182C45.3386 65.092 44.9426 65.056 44.1686 65.056H43.3406V68.584ZM51.733 76V62.698H58.879V65.056H54.199V68.188H58.681V70.546H54.199V73.642H58.879V76H51.733ZM60.5605 76L66.1045 62.698H68.0485L73.6285 76H70.9105L69.4885 72.562H64.7545L63.2785 76H60.5605ZM65.6545 70.204H68.4985L67.0765 66.172L65.6545 70.204ZM76.8907 76V65.056H74.4247V62.698H81.8227V65.056H79.3567V76H76.8907ZM83.7632 76V62.698H86.2112V71.914L91.9892 62.698H94.4912V76H92.0432V66.784L86.2652 76H83.7632ZM97.5922 76V62.698H100.328C103.82 62.698 105.44 63.814 105.44 66.244C105.44 67.504 105.026 68.188 103.964 68.746C105.566 69.394 106.232 70.366 106.232 72.04C106.232 74.56 104.378 76 101.138 76H97.5922ZM100.058 73.642H101.282C103.01 73.642 103.748 73.138 103.748 71.968C103.748 70.924 103.064 70.24 102.02 70.24H100.058V73.642ZM100.058 67.828H101.642C102.47 67.828 102.974 67.306 102.974 66.46C102.974 65.542 102.362 65.11 101.066 65.11H100.058V67.828ZM108.697 76V62.698H111.163V68.062H115.915V62.698H118.381V76H115.915V70.42H111.163V76H108.697ZM121.471 76V62.698H123.937V67.9H124.819C128.905 67.9 130.687 69.142 130.687 71.968C130.687 74.704 128.797 76 124.855 76H121.471ZM123.937 73.642H124.927C127.393 73.642 128.203 73.21 128.203 71.914C128.203 70.816 127.051 70.258 124.801 70.258H123.937V73.642ZM132.019 76V62.698H134.485V76H132.019ZM139.763 59.134H141.833C141.833 60.088 142.175 60.502 142.949 60.502C143.723 60.502 144.065 60.088 144.065 59.134H146.135C145.865 60.736 144.695 61.672 142.949 61.672C141.203 61.672 140.033 60.736 139.763 59.134ZM137.585 76V62.698H140.033V71.914L145.811 62.698H148.313V76H145.865V66.784L140.087 76H137.585ZM156.369 69.358C156.369 65.47 159.429 62.464 163.407 62.464C167.187 62.464 170.229 65.542 170.229 69.34C170.229 73.228 167.241 76.234 163.371 76.234C159.465 76.234 156.369 73.21 156.369 69.358ZM158.853 69.34C158.853 71.878 160.833 73.858 163.353 73.858C165.873 73.858 167.745 71.95 167.745 69.376C167.745 66.766 165.837 64.84 163.245 64.84C160.815 64.84 158.853 66.838 158.853 69.34ZM174.006 76V65.056H171.54V62.698H178.938V65.056H176.472V76H174.006ZM179.852 78.61V73.642H181.616L186.17 62.698H188.15L192.704 73.642H194.468V78.61H192.74L192.236 76H182.084L181.58 78.61H179.852ZM184.172 73.642H190.148L187.16 66.352L184.172 73.642ZM196.535 76V62.698H203.681V65.056H199.001V68.188H203.483V70.546H199.001V73.642H203.681V76H196.535ZM205.363 76L210.925 62.698H212.869L218.431 76H215.767L211.897 66.082L208.027 76H205.363Z" fill="#F5F1EE"/>
<defs>
<filter id="filter0_b_185_686" x="-15" y="-15" width="406" height="285" filterUnits="userSpaceOnUse" color-interpolation-filters="sRGB">
<feFlood flood-opacity="0" result="BackgroundImageFix"/>
<feGaussianBlur in="BackgroundImageFix" stdDeviation="7.5"/>
<feComposite in2="SourceAlpha" operator="in" result="effect1_backgroundBlur_185_686"/>
<feBlend mode="normal" in="SourceGraphic" in2="effect1_backgroundBlur_185_686" result="shape"/>
</filter>
</defs>
</svg>
