<svg width="376" height="255" viewBox="0 0 376 255" fill="none" xmlns="http://www.w3.org/2000/svg">
<g filter="url(#filter0_b_185_692)">
<path fill-rule="evenodd" clip-rule="evenodd" d="M127 13.0814C127 5.85674 121.143 0 113.919 0H23.9156C10.7074 0 0 10.7074 0 23.9156V219C0 238.882 16.1177 255 36 255H340C359.882 255 376 238.882 376 219V54C376 39.0883 363.912 27 349 27H140.919C133.232 27 127 20.7684 127 13.0814Z" fill="#0D0D0D" fill-opacity="0.85"/>
<path d="M113.919 0.5C120.867 0.5 126.5 6.13288 126.5 13.0814C126.5 21.0446 132.955 27.5 140.919 27.5H349C363.636 27.5 375.5 39.3645 375.5 54V219C375.5 238.606 359.606 254.5 340 254.5H36C16.3939 254.5 0.5 238.606 0.5 219V23.9156C0.5 10.9835 10.9835 0.5 23.9156 0.5H113.919Z" stroke="#F5F1EE"/>
</g>
<path d="M28.342 72.202H30.916C31.024 73.318 31.618 73.858 32.716 73.858C33.778 73.858 34.516 73.192 34.516 72.238C34.516 70.654 32.788 70.294 31.6 69.862C29.8 69.196 28.828 67.918 28.828 66.244C28.828 64.138 30.538 62.464 32.698 62.464C34.948 62.464 36.514 63.976 36.64 66.244H34.084C34.012 65.344 33.508 64.84 32.68 64.84C31.87 64.84 31.312 65.398 31.312 66.19C31.312 67.018 31.78 67.396 33.526 67.99C35.92 68.8 36.964 70.006 36.964 71.968C36.964 74.38 35.11 76.234 32.716 76.234C30.268 76.234 28.522 74.614 28.342 72.202ZM39.2575 76V62.698H46.4035V65.056H41.7235V68.188H46.2055V70.546H41.7235V73.642H46.4035V76H39.2575ZM48.6069 69.358C48.6069 65.47 51.6669 62.464 55.6449 62.464C59.4249 62.464 62.4669 65.542 62.4669 69.34C62.4669 73.228 59.4789 76.234 55.6089 76.234C51.7029 76.234 48.6069 73.21 48.6069 69.358ZM51.0909 69.34C51.0909 71.878 53.0709 73.858 55.5909 73.858C58.1109 73.858 59.9829 71.95 59.9829 69.376C59.9829 66.766 58.0749 64.84 55.4829 64.84C53.0529 64.84 51.0909 66.838 51.0909 69.34ZM69.8842 69.358C69.8842 65.47 72.9442 62.464 76.9222 62.464C80.7022 62.464 83.7442 65.542 83.7442 69.34C83.7442 73.228 80.7562 76.234 76.8862 76.234C72.9802 76.234 69.8842 73.21 69.8842 69.358ZM72.3682 69.34C72.3682 71.878 74.3482 73.858 76.8682 73.858C79.3882 73.858 81.2602 71.95 81.2602 69.376C81.2602 66.766 79.3522 64.84 76.7602 64.84C74.3302 64.84 72.3682 66.838 72.3682 69.34ZM87.5205 76V65.056H85.0545V62.698H92.4525V65.056H89.9865V76H87.5205ZM93.367 78.61V73.642H95.131L99.685 62.698H101.665L106.219 73.642H107.983V78.61H106.255L105.751 76H95.599L95.095 78.61H93.367ZM97.687 73.642H103.663L100.675 66.352L97.687 73.642ZM110.05 76V62.698H117.196V65.056H112.516V68.188H116.998V70.546H112.516V73.642H117.196V76H110.05ZM118.878 76L124.44 62.698H126.384L131.946 76H129.282L125.412 66.082L121.542 76H118.878Z" fill="#F5F1EE"/>
<defs>
<filter id="filter0_b_185_692" x="-15" y="-15" width="406" height="285" filterUnits="userSpaceOnUse" color-interpolation-filters="sRGB">
<feFlood flood-opacity="0" result="BackgroundImageFix"/>
<feGaussianBlur in="BackgroundImageFix" stdDeviation="7.5"/>
<feComposite in2="SourceAlpha" operator="in" result="effect1_backgroundBlur_185_692"/>
<feBlend mode="normal" in="SourceGraphic" in2="effect1_backgroundBlur_185_692" result="shape"/>
</filter>
</defs>
</svg>
