<svg width="376" height="255" viewBox="0 0 376 255" fill="none" xmlns="http://www.w3.org/2000/svg">
<g filter="url(#filter0_b_185_704)">
<path fill-rule="evenodd" clip-rule="evenodd" d="M127 13.0814C127 5.85674 121.143 0 113.919 0H23.9156C10.7074 0 0 10.7074 0 23.9156V219C0 238.882 16.1177 255 36 255H340C359.882 255 376 238.882 376 219V54C376 39.0883 363.912 27 349 27H140.919C133.232 27 127 20.7684 127 13.0814Z" fill="#0D0D0D" fill-opacity="0.85"/>
<path d="M113.919 0.5C120.867 0.5 126.5 6.13288 126.5 13.0814C126.5 21.0446 132.955 27.5 140.919 27.5H349C363.636 27.5 375.5 39.3645 375.5 54V219C375.5 238.606 359.606 254.5 340 254.5H36C16.3939 254.5 0.5 238.606 0.5 219V23.9156C0.5 10.9835 10.9835 0.5 23.9156 0.5H113.919Z" stroke="#F5F1EE"/>
</g>
<path d="M34.066 76V74.974C30.844 74.47 28.54 72.094 28.54 69.232C28.54 66.37 30.844 63.994 34.066 63.49V62.698H36.532V63.49C39.772 63.976 42.058 66.37 42.058 69.232C42.058 72.094 39.772 74.488 36.532 74.974V76H34.066ZM34.066 72.562V65.92C32.23 66.334 31.024 67.666 31.024 69.232C31.024 70.816 32.248 72.148 34.066 72.562ZM36.532 65.902V72.562C38.35 72.148 39.574 70.816 39.574 69.232C39.574 67.648 38.35 66.316 36.532 65.902ZM44.4078 76V62.698H46.8558V71.914L52.6338 62.698H55.1358V76H52.6878V66.784L46.9098 76H44.4078ZM58.2369 76V62.698H60.7029V68.062H65.4549V62.698H67.9209V76H65.4549V70.42H60.7029V76H58.2369ZM69.8593 76L75.4033 62.698H77.3473L82.9273 76H80.2093L78.7873 72.562H74.0533L72.5773 76H69.8593ZM74.9533 70.204H77.7973L76.3753 66.172L74.9533 70.204ZM84.8755 76V62.698H87.3415V68.062H92.0935V62.698H94.5595V76H92.0935V70.42H87.3415V76H84.8755ZM107.262 72.292H110.16C109.116 74.722 106.758 76.234 104.022 76.234C100.134 76.234 97.0199 73.156 97.0199 69.304C97.0199 65.542 100.098 62.464 103.86 62.464C106.686 62.464 109.008 63.958 110.16 66.514H107.406C106.506 65.344 105.462 64.84 103.914 64.84C101.394 64.84 99.5039 66.766 99.5039 69.322C99.5039 71.824 101.52 73.858 103.968 73.858C105.246 73.858 106.164 73.426 107.262 72.292ZM111.992 69.358C111.992 65.47 115.052 62.464 119.03 62.464C122.81 62.464 125.852 65.542 125.852 69.34C125.852 73.228 122.864 76.234 118.994 76.234C115.088 76.234 111.992 73.21 111.992 69.358ZM114.476 69.34C114.476 71.878 116.456 73.858 118.976 73.858C121.496 73.858 123.368 71.95 123.368 69.376C123.368 66.766 121.46 64.84 118.868 64.84C116.438 64.84 114.476 66.838 114.476 69.34ZM128.314 76V62.698H131.05C134.542 62.698 136.162 63.814 136.162 66.244C136.162 67.504 135.748 68.188 134.686 68.746C136.288 69.394 136.954 70.366 136.954 72.04C136.954 74.56 135.1 76 131.86 76H128.314ZM130.78 73.642H132.004C133.732 73.642 134.47 73.138 134.47 71.968C134.47 70.924 133.786 70.24 132.742 70.24H130.78V73.642ZM130.78 67.828H132.364C133.192 67.828 133.696 67.306 133.696 66.46C133.696 65.542 133.084 65.11 131.788 65.11H130.78V67.828ZM139.418 76V62.698H141.884V67.9H142.766C146.852 67.9 148.634 69.142 148.634 71.968C148.634 74.704 146.744 76 142.802 76H139.418ZM141.884 73.642H142.874C145.34 73.642 146.15 73.21 146.15 71.914C146.15 70.816 144.998 70.258 142.748 70.258H141.884V73.642ZM149.966 76V62.698H152.432V76H149.966ZM157.711 59.134H159.781C159.781 60.088 160.123 60.502 160.897 60.502C161.671 60.502 162.013 60.088 162.013 59.134H164.083C163.813 60.736 162.643 61.672 160.897 61.672C159.151 61.672 157.981 60.736 157.711 59.134ZM155.533 76V62.698H157.981V71.914L163.759 62.698H166.261V76H163.813V66.784L158.035 76H155.533ZM174.317 69.358C174.317 65.47 177.377 62.464 181.355 62.464C185.135 62.464 188.177 65.542 188.177 69.34C188.177 73.228 185.189 76.234 181.319 76.234C177.413 76.234 174.317 73.21 174.317 69.358ZM176.801 69.34C176.801 71.878 178.781 73.858 181.301 73.858C183.821 73.858 185.693 71.95 185.693 69.376C185.693 66.766 183.785 64.84 181.193 64.84C178.763 64.84 176.801 66.838 176.801 69.34ZM191.953 76V65.056H189.487V62.698H196.885V65.056H194.419V76H191.953ZM197.799 78.61V73.642H199.563L204.117 62.698H206.097L210.651 73.642H212.415V78.61H210.687L210.183 76H200.031L199.527 78.61H197.799ZM202.119 73.642H208.095L205.107 66.352L202.119 73.642ZM214.483 76V62.698H221.629V65.056H216.949V68.188H221.431V70.546H216.949V73.642H221.629V76H214.483ZM223.31 76L228.872 62.698H230.816L236.378 76H233.714L229.844 66.082L225.974 76H223.31Z" fill="#F5F1EE"/>
<defs>
<filter id="filter0_b_185_704" x="-15" y="-15" width="406" height="285" filterUnits="userSpaceOnUse" color-interpolation-filters="sRGB">
<feFlood flood-opacity="0" result="BackgroundImageFix"/>
<feGaussianBlur in="BackgroundImageFix" stdDeviation="7.5"/>
<feComposite in2="SourceAlpha" operator="in" result="effect1_backgroundBlur_185_704"/>
<feBlend mode="normal" in="SourceGraphic" in2="effect1_backgroundBlur_185_704" result="shape"/>
</filter>
</defs>
</svg>
