<svg width="376" height="255" viewBox="0 0 376 255" fill="none" xmlns="http://www.w3.org/2000/svg">
<g filter="url(#filter0_b_185_698)">
<path fill-rule="evenodd" clip-rule="evenodd" d="M127 13.0814C127 5.85674 121.143 0 113.919 0H23.9156C10.7074 0 0 10.7074 0 23.9156V219C0 238.882 16.1177 255 36 255H340C359.882 255 376 238.882 376 219V54C376 39.0883 363.912 27 349 27H140.919C133.232 27 127 20.7684 127 13.0814Z" fill="#0D0D0D" fill-opacity="0.85"/>
<path d="M113.919 0.5C120.867 0.5 126.5 6.13288 126.5 13.0814C126.5 21.0446 132.955 27.5 140.919 27.5H349C363.636 27.5 375.5 39.3645 375.5 54V219C375.5 238.606 359.606 254.5 340 254.5H36C16.3939 254.5 0.5 238.606 0.5 219V23.9156C0.5 10.9835 10.9835 0.5 23.9156 0.5H113.919Z" stroke="#F5F1EE"/>
</g>
<path d="M29.278 76V62.698H31.744V68.062H36.496V62.698H38.962V76H36.496V70.42H31.744V76H29.278ZM42.0524 76V62.698H45.8864C49.1804 62.698 50.9264 64.174 50.9264 66.964C50.9264 69.124 49.7564 70.492 47.4524 71.086L51.0524 76H48.0104L44.5184 70.906V76H42.0524ZM44.5184 69.052H45.7244C47.6324 69.052 48.4424 68.44 48.4424 67.036C48.4424 65.632 47.6144 65.056 45.6164 65.056H44.5184V69.052ZM58.4106 69.358C58.4106 65.47 61.4706 62.464 65.4486 62.464C69.2286 62.464 72.2706 65.542 72.2706 69.34C72.2706 73.228 69.2826 76.234 65.4126 76.234C61.5066 76.234 58.4106 73.21 58.4106 69.358ZM60.8946 69.34C60.8946 71.878 62.8746 73.858 65.3946 73.858C67.9146 73.858 69.7866 71.95 69.7866 69.376C69.7866 66.766 67.8786 64.84 65.2866 64.84C62.8566 64.84 60.8946 66.838 60.8946 69.34ZM76.0469 76V65.056H73.5809V62.698H80.9789V65.056H78.5129V76H76.0469ZM81.8934 78.61V73.642H83.6574L88.2114 62.698H90.1914L94.7454 73.642H96.5094V78.61H94.7814L94.2774 76H84.1254L83.6214 78.61H81.8934ZM86.2134 73.642H92.1894L89.2014 66.352L86.2134 73.642ZM98.5766 76V62.698H105.723V65.056H101.043V68.188H105.525V70.546H101.043V73.642H105.723V76H98.5766ZM107.404 76L112.966 62.698H114.91L120.472 76H117.808L113.938 66.082L110.068 76H107.404Z" fill="#F5F1EE"/>
<defs>
<filter id="filter0_b_185_698" x="-15" y="-15" width="406" height="285" filterUnits="userSpaceOnUse" color-interpolation-filters="sRGB">
<feFlood flood-opacity="0" result="BackgroundImageFix"/>
<feGaussianBlur in="BackgroundImageFix" stdDeviation="7.5"/>
<feComposite in2="SourceAlpha" operator="in" result="effect1_backgroundBlur_185_698"/>
<feBlend mode="normal" in="SourceGraphic" in2="effect1_backgroundBlur_185_698" result="shape"/>
</filter>
</defs>
</svg>
