<svg width="376" height="255" viewBox="0 0 376 255" fill="none" xmlns="http://www.w3.org/2000/svg">
<g filter="url(#filter0_b_185_695)">
<path fill-rule="evenodd" clip-rule="evenodd" d="M127 13.0814C127 5.85674 121.143 0 113.919 0H23.9156C10.7074 0 0 10.7074 0 23.9156V219C0 238.882 16.1177 255 36 255H340C359.882 255 376 238.882 376 219V54C376 39.0883 363.912 27 349 27H140.919C133.232 27 127 20.7684 127 13.0814Z" fill="#0D0D0D" fill-opacity="0.85"/>
<path d="M113.919 0.5C120.867 0.5 126.5 6.13288 126.5 13.0814C126.5 21.0446 132.955 27.5 140.919 27.5H349C363.636 27.5 375.5 39.3645 375.5 54V219C375.5 238.606 359.606 254.5 340 254.5H36C16.3939 254.5 0.5 238.606 0.5 219V23.9156C0.5 10.9835 10.9835 0.5 23.9156 0.5H113.919Z" stroke="#F5F1EE"/>
</g>
<path d="M28.648 69.358C28.648 65.47 31.708 62.464 35.686 62.464C39.466 62.464 42.508 65.542 42.508 69.34C42.508 73.228 39.52 76.234 35.65 76.234C31.744 76.234 28.648 73.21 28.648 69.358ZM31.132 69.34C31.132 71.878 33.112 73.858 35.632 73.858C38.152 73.858 40.024 71.95 40.024 69.376C40.024 66.766 38.116 64.84 35.524 64.84C33.094 64.84 31.132 66.838 31.132 69.34ZM46.2843 76V65.056H43.8183V62.698H51.2163V65.056H48.7503V76H46.2843ZM52.1308 78.61V73.642H53.8948L58.4488 62.698H60.4288L64.9828 73.642H66.7468V78.61H65.0188L64.5148 76H54.3628L53.8588 78.61H52.1308ZM56.4508 73.642H62.4268L59.4388 66.352L56.4508 73.642ZM68.814 76V62.698H75.96V65.056H71.28V68.188H75.762V70.546H71.28V73.642H75.96V76H68.814ZM77.6415 76L83.2035 62.698H85.1475L90.7095 76H88.0455L84.1755 66.082L80.3055 76H77.6415ZM98.2426 76V62.698H101.537C103.337 62.698 104.255 62.878 105.047 63.382C106.127 64.066 106.739 65.308 106.739 66.802C106.739 68.386 106.037 69.754 104.885 70.402C104.165 70.798 103.319 70.942 101.501 70.942H100.709V76H98.2426ZM100.709 68.584H101.429C102.653 68.584 104.255 68.494 104.255 66.856C104.255 66.01 103.823 65.38 103.103 65.182C102.707 65.092 102.311 65.056 101.537 65.056H100.709V68.584ZM107.949 76L113.493 62.698H115.437L121.017 76H118.299L116.877 72.562H112.143L110.667 76H107.949ZM113.043 70.204H115.887L114.465 66.172L113.043 70.204ZM122.227 71.95H124.711C124.711 73.012 125.557 73.858 126.619 73.858C127.681 73.858 128.527 73.012 128.527 71.95C128.527 70.618 127.699 70.06 125.719 70.06V67.9C127.339 67.9 128.203 67.378 128.203 66.37C128.203 65.524 127.501 64.822 126.619 64.822C125.737 64.822 125.035 65.524 125.035 66.37H122.641C122.641 64.21 124.405 62.464 126.619 62.464C128.833 62.464 130.597 64.21 130.597 66.37C130.597 67.576 129.931 68.584 128.905 68.908C130.075 69.322 131.011 70.672 131.011 71.95C131.011 74.308 129.049 76.234 126.619 76.234C124.189 76.234 122.227 74.308 122.227 71.95ZM133.472 76V62.698H136.208C139.7 62.698 141.32 63.814 141.32 66.244C141.32 67.504 140.906 68.188 139.844 68.746C141.446 69.394 142.112 70.366 142.112 72.04C142.112 74.56 140.258 76 137.018 76H133.472ZM135.938 73.642H137.162C138.89 73.642 139.628 73.138 139.628 71.968C139.628 70.924 138.944 70.24 137.9 70.24H135.938V73.642ZM135.938 67.828H137.522C138.35 67.828 138.854 67.306 138.854 66.46C138.854 65.542 138.242 65.11 136.946 65.11H135.938V67.828ZM144.576 76V62.698H147.024V71.914L152.802 62.698H155.304V76H152.856V66.784L147.078 76H144.576ZM159.72 76V65.056H157.254V62.698H164.652V65.056H162.186V76H159.72ZM166.592 76V62.698H169.04V71.914L174.818 62.698H177.32V76H174.872V66.784L169.094 76H166.592ZM186.289 68.836V65.056H185.425C184.687 65.056 184.237 65.092 183.769 65.2C183.031 65.398 182.563 66.082 182.563 66.982C182.563 68.71 184.219 68.836 185.533 68.836H186.289ZM179.539 76L182.689 70.924C180.961 70.456 180.079 68.62 180.079 66.928C180.079 65.398 180.709 64.12 181.825 63.4C182.635 62.878 183.571 62.698 185.443 62.698H188.755V76H186.289V71.194H185.281L182.383 76H179.539Z" fill="#F5F1EE"/>
<defs>
<filter id="filter0_b_185_695" x="-15" y="-15" width="406" height="285" filterUnits="userSpaceOnUse" color-interpolation-filters="sRGB">
<feFlood flood-opacity="0" result="BackgroundImageFix"/>
<feGaussianBlur in="BackgroundImageFix" stdDeviation="7.5"/>
<feComposite in2="SourceAlpha" operator="in" result="effect1_backgroundBlur_185_695"/>
<feBlend mode="normal" in="SourceGraphic" in2="effect1_backgroundBlur_185_695" result="shape"/>
</filter>
</defs>
</svg>
